<svg width="9" height="11" viewBox="0 0 9 11" fill="none" xmlns="http://www.w3.org/2000/svg">
<path d="M0.257013 11V0.818182H4.33372C5.08277 0.818182 5.70753 0.929214 6.20801 1.15128C6.70848 1.37334 7.08467 1.68158 7.33656 2.07599C7.58845 2.46709 7.7144 2.91785 7.7144 3.42827C7.7144 3.82599 7.63485 4.17566 7.47576 4.47727C7.31667 4.77557 7.09792 5.02083 6.81951 5.21307C6.54442 5.40199 6.22955 5.53622 5.87491 5.61577V5.7152C6.2627 5.73177 6.62562 5.84115 6.96369 6.04332C7.30507 6.2455 7.58182 6.52888 7.79395 6.89347C8.00607 7.25473 8.11213 7.68561 8.11213 8.18608C8.11213 8.72633 7.97789 9.20857 7.70943 9.63281C7.44428 10.0537 7.05152 10.3868 6.53116 10.6321C6.0108 10.8774 5.36947 11 4.60716 11H0.257013ZM2.40971 9.24006H4.16468C4.76459 9.24006 5.20209 9.12571 5.47718 8.89702C5.75228 8.66501 5.88983 8.35677 5.88983 7.9723C5.88983 7.69058 5.82188 7.442 5.68599 7.22656C5.5501 7.01113 5.35621 6.84209 5.10431 6.71946C4.85574 6.59683 4.5591 6.53551 4.2144 6.53551H2.40971V9.24006ZM2.40971 5.07884H4.00559C4.30057 5.07884 4.56241 5.02746 4.7911 4.92472C5.02311 4.81866 5.2054 4.66951 5.33798 4.47727C5.47387 4.28504 5.54181 4.05469 5.54181 3.78622C5.54181 3.41832 5.4109 3.12169 5.14906 2.89631C4.89054 2.67093 4.52264 2.55824 4.04537 2.55824H2.40971V5.07884Z" fill="black"/>
</svg>
