<svg width="46" height="59" viewBox="0 0 46 59" fill="none" xmlns="http://www.w3.org/2000/svg">
<path d="M22.6867 40.5102C15.611 40.5102 9.85852 34.7577 9.85852 27.682V12.8282C9.85852 5.75245 15.611 0 22.6867 0C29.7625 0 35.515 5.75245 35.515 12.8282V27.682C35.515 34.7577 29.7625 40.5102 22.6867 40.5102ZM22.6867 4.05102C17.8525 4.05102 13.9095 7.99401 13.9095 12.8282V27.682C13.9095 32.5162 17.8525 36.4592 22.6867 36.4592C27.521 36.4592 31.464 32.5162 31.464 27.682V12.8282C31.464 7.99401 27.521 4.05102 22.6867 4.05102Z" fill="white"/>
<path d="M22.6857 49.9623C10.1816 49.9623 0 39.7808 0 27.2766V22.6855C0 21.5782 0.91823 20.6599 2.02551 20.6599C3.13279 20.6599 4.05102 21.5782 4.05102 22.6855V27.2766C4.05102 37.5392 12.4231 45.9113 22.6857 45.9113C32.9483 45.9113 41.3204 37.5392 41.3204 27.2766V22.6855C41.3204 21.5782 42.2386 20.6599 43.3459 20.6599C44.4532 20.6599 45.3714 21.5782 45.3714 22.6855V27.2766C45.3714 39.7808 35.1898 49.9623 22.6857 49.9623Z" fill="white"/>
<path d="M26.4404 16.0145C26.2244 16.0145 25.9813 15.9875 25.7383 15.9065C23.7668 15.1773 21.6062 15.1773 19.6347 15.9065C18.5815 16.2846 17.4202 15.7445 17.042 14.6912C16.6639 13.6379 17.2041 12.4766 18.2574 12.0986C21.1201 11.0723 24.2799 11.0723 27.1426 12.0986C28.1959 12.4766 28.736 13.6379 28.3579 14.6912C28.0338 15.5014 27.2506 16.0145 26.4404 16.0145Z" fill="white"/>
<path d="M24.8475 21.74C24.6585 21.74 24.4964 21.713 24.3074 21.659C23.2271 21.3619 22.1198 21.3619 21.0396 21.659C19.9593 21.956 18.852 21.3079 18.5549 20.2276C18.2579 19.1743 18.906 18.0671 19.9863 17.77C21.7417 17.2839 23.6322 17.2839 25.3877 17.77C26.4679 18.0671 27.1161 19.1743 26.819 20.2546C26.576 21.1458 25.7388 21.74 24.8475 21.74Z" fill="white"/>
<path d="M22.6868 58.0646C21.5795 58.0646 20.6613 57.1464 20.6613 56.0391V47.9371C20.6613 46.8298 21.5795 45.9116 22.6868 45.9116C23.794 45.9116 24.7123 46.8298 24.7123 47.9371V56.0391C24.7123 57.1464 23.794 58.0646 22.6868 58.0646Z" fill="white"/>
</svg>
