<svg width="52" height="52" viewBox="0 0 52 52" fill="none" xmlns="http://www.w3.org/2000/svg">
<path d="M51.3312 25.6656C51.3312 11.5239 39.8074 0 25.6656 0C11.5239 0 0 11.5239 0 25.6656C0 33.1086 3.2082 39.8074 8.28999 44.5042C8.28999 44.5298 8.28999 44.5298 8.26432 44.5555C8.52098 44.8121 8.82897 45.0175 9.08562 45.2485C9.23962 45.3768 9.36794 45.5051 9.52194 45.6078C9.98392 45.9928 10.4972 46.3521 10.9849 46.7114C11.1645 46.8397 11.3185 46.9424 11.4982 47.0707C11.9858 47.4044 12.4991 47.7124 13.0381 47.9947C13.2178 48.0973 13.4231 48.2257 13.6028 48.3283C14.1161 48.6107 14.6551 48.8673 15.2197 49.0983C15.425 49.201 15.6304 49.3036 15.8357 49.3806C16.4003 49.6116 16.965 49.8169 17.5296 49.9966C17.7349 50.0736 17.9403 50.1506 18.1456 50.2019C18.7616 50.3816 19.3775 50.5356 19.9935 50.6896C20.1732 50.7409 20.3528 50.7922 20.5581 50.8179C21.2768 50.9719 21.9954 51.0746 22.7397 51.1515C22.8424 51.1515 22.945 51.1772 23.0477 51.2029C23.9203 51.2799 24.793 51.3312 25.6656 51.3312C26.5382 51.3312 27.4109 51.2799 28.2578 51.2029C28.3605 51.2029 28.4632 51.1772 28.5658 51.1515C29.3101 51.0746 30.0288 50.9719 30.7474 50.8179C30.927 50.7922 31.1067 50.7152 31.312 50.6896C31.928 50.5356 32.5696 50.4072 33.16 50.2019C33.3653 50.1249 33.5706 50.0479 33.7759 49.9966C34.3406 49.7913 34.9309 49.6116 35.4699 49.3806C35.6752 49.3036 35.8805 49.201 36.0858 49.0983C36.6248 48.8673 37.1638 48.6107 37.7028 48.3283C37.9081 48.2257 38.0878 48.0973 38.2674 47.9947C38.7807 47.6867 39.294 47.4044 39.8074 47.0707C39.987 46.9681 40.141 46.8397 40.3207 46.7114C40.834 46.3521 41.3216 45.9928 41.7836 45.6078C41.9376 45.4795 42.0659 45.3511 42.2199 45.2485C42.5022 45.0175 42.7846 44.7865 43.0412 44.5555C43.0412 44.5298 43.0412 44.5298 43.0156 44.5042C48.123 39.8074 51.3312 33.1086 51.3312 25.6656ZM38.3444 38.4214C31.389 33.7503 19.9935 33.7503 12.9868 38.4214C11.8575 39.1657 10.9335 40.0383 10.1636 40.988C6.26241 37.0355 3.84984 31.62 3.84984 25.6656C3.84984 13.6284 13.6284 3.84984 25.6656 3.84984C37.7028 3.84984 47.4814 13.6284 47.4814 25.6656C47.4814 31.62 45.0688 37.0355 41.1676 40.988C40.4233 40.0383 39.4737 39.1657 38.3444 38.4214Z" fill="#069697"/>
<path d="M25.6656 12.6523C20.3528 12.6523 16.041 16.9642 16.041 22.277C16.041 27.4871 20.1218 31.7219 25.5373 31.8759H25.7683H25.9479H25.9993C31.1837 31.6962 35.2646 27.4871 35.2902 22.277C35.2902 16.9642 30.9784 12.6523 25.6656 12.6523Z" fill="#069697"/>
</svg>
