<svg width="16" height="16" viewBox="0 0 16 16" fill="none" xmlns="http://www.w3.org/2000/svg">
<path d="M12.5024 4.62658L11.8423 3.8586C11.2825 3.27071 10.609 2.80286 9.86276 2.48351C9.11649 2.16416 8.31304 2 7.50131 2.00101C4.18809 2.00101 1.5 4.6891 1.5 8.00232C1.5 11.3155 4.18809 14.0036 7.50131 14.0036C8.74252 14.0035 9.9532 13.6188 10.9667 12.9023C11.9803 12.1858 12.7469 11.1728 13.161 10.0028" stroke="black" stroke-width="1.00189" stroke-miterlimit="10" stroke-linecap="square"/>
<path d="M14.5035 2.1397V6.87734C14.5035 6.91051 14.4903 6.94231 14.4668 6.96576C14.4434 6.98921 14.4116 7.00239 14.3784 7.00239H9.64077C9.61602 7.00241 9.59183 6.99509 9.57125 6.98135C9.55066 6.96761 9.53462 6.94807 9.52515 6.92521C9.51568 6.90235 9.5132 6.87719 9.51803 6.85292C9.52287 6.82865 9.53479 6.80636 9.5523 6.78887L14.2899 2.05123C14.3074 2.03372 14.3297 2.0218 14.354 2.01697C14.3783 2.01213 14.4034 2.01461 14.4263 2.02408C14.4491 2.03355 14.4687 2.0496 14.4824 2.07018C14.4962 2.09076 14.5035 2.11495 14.5035 2.1397Z" fill="black"/>
</svg>
