<svg width="40" height="33" viewBox="0 0 40 33" fill="none" xmlns="http://www.w3.org/2000/svg">
<line x1="12" y1="25.5" x2="28.1245" y2="25.5" stroke="black"/>
<path d="M22.7263 11.8182H23.9593V18.5597C23.9593 19.2557 23.7952 19.8771 23.4671 20.424C23.1423 20.9676 22.6832 21.3968 22.0899 21.7116C21.4967 22.0232 20.8006 22.179 20.0019 22.179C19.2031 22.179 18.5071 22.0232 17.9138 21.7116C17.3205 21.3968 16.8598 20.9676 16.5317 20.424C16.2069 19.8771 16.0445 19.2557 16.0445 18.5597V11.8182H17.2774V18.4602C17.2774 18.9574 17.3868 19.3999 17.6056 19.7876C17.8243 20.1721 18.1359 20.4754 18.5402 20.6974C18.9479 20.9162 19.4351 21.0256 20.0019 21.0256C20.5686 21.0256 21.0558 20.9162 21.4635 20.6974C21.8712 20.4754 22.1827 20.1721 22.3982 19.7876C22.6169 19.3999 22.7263 18.9574 22.7263 18.4602V11.8182Z" fill="black"/>
</svg>
